<svg width="381" height="447" viewBox="0 0 381 447" fill="none" xmlns="http://www.w3.org/2000/svg">
<g clip-path="url(#clip0)">
<path d="M74.1228 307.879H24.1092C22.0287 307.878 20.0104 307.168 18.3863 305.867C16.7622 304.565 15.629 302.749 15.1729 300.718L4.27405 252.098C3.97399 250.758 3.97879 249.368 4.28811 248.03C4.59742 246.692 5.20333 245.44 6.06102 244.368C6.9187 243.296 8.00622 242.431 9.24312 241.836C10.48 241.242 11.8347 240.933 13.2068 240.933" stroke="#34364C" stroke-width="5" stroke-miterlimit="10" stroke-linecap="round"/>
<path d="M166.371 307.879H116.358C114.277 307.878 112.259 307.168 110.635 305.867C109.011 304.565 107.877 302.749 107.421 300.718L96.5224 252.098C96.2224 250.758 96.2272 249.368 96.5365 248.03C96.8458 246.692 97.4517 245.44 98.3094 244.368C99.1671 243.296 100.255 242.431 101.492 241.836C102.728 241.242 104.083 240.933 105.455 240.933" stroke="#34364C" stroke-width="5" stroke-miterlimit="10" stroke-linecap="round"/>
<path d="M111.631 258.087H26.7556C23.6665 258.087 20.6684 257.041 18.2491 255.118C15.8298 253.196 14.1317 250.511 13.4312 247.5L1.2003 194.927C0.801744 193.213 0.795037 191.432 1.18068 189.716C1.56631 187.999 2.33434 186.392 3.42741 185.014C4.52049 183.636 5.91039 182.524 7.49336 181.759C9.07632 180.994 10.8115 180.596 12.5693 180.597H97.4485C100.537 180.597 103.535 181.643 105.953 183.566C108.372 185.488 110.07 188.173 110.769 191.184L123 243.767C123.396 245.48 123.401 247.26 123.014 248.975C122.627 250.69 121.859 252.295 120.766 253.671C119.674 255.048 118.285 256.16 116.703 256.924C115.121 257.689 113.388 258.086 111.631 258.087V258.087Z" fill="white" stroke="#34364C" stroke-width="5" stroke-miterlimit="10" stroke-linecap="round"/>
<path d="M168.936 295.752H32.8105C29.4645 295.752 26.752 298.467 26.752 301.816C26.752 305.164 29.4645 307.879 32.8105 307.879H168.936C172.282 307.879 174.994 305.164 174.994 301.816C174.994 298.467 172.282 295.752 168.936 295.752Z" fill="#EAEEFF" stroke="#34364C" stroke-width="5" stroke-miterlimit="10" stroke-linecap="round"/>
<path d="M16.6296 445.735L33.53 319.678C33.8541 313.066 39.0613 307.879 45.3762 307.879H74.5823C80.8972 307.879 86.1044 313.066 86.4321 319.678L103.332 445.735" stroke="#34364C" stroke-width="5" stroke-miterlimit="10" stroke-linecap="round"/>
<path d="M123.965 307.879H152.324C158.454 307.879 163.511 313.066 163.828 319.678L180.55 445.735" stroke="#34364C" stroke-width="5" stroke-miterlimit="10" stroke-linecap="round"/>
<path d="M257.786 182.967C259.628 184.183 263.898 193.237 263.976 194.328C264.055 195.419 259.15 203.525 259.15 203.525C259.15 203.525 257.202 203.568 256.832 199.108C256.379 193.829 254.064 191.829 250.709 191.077C249.306 190.763 246.727 191.833 246.545 193.9C246.364 195.968 251.699 197.34 252.771 198.595C254.399 200.491 253.484 203.165 253.484 203.229C253.484 203.229 245.249 200.734 243.667 200.27C242.243 199.846 235.882 194.057 231.914 188.318C230.437 189.4 228.891 190.383 227.284 191.259C217.311 196.627 183.118 209.115 165.406 206.284C147.619 203.432 161.826 146.753 161.826 146.753C187.585 147.944 198.37 144.661 200.336 143.965L196.336 170.166C207.16 169.845 233.794 174.262 233.809 174.266C241.292 175.25 255.14 181.224 257.786 182.967Z" fill="#F1921B"/>
<path d="M161.702 146.728H161.855C187.613 147.919 198.398 144.636 200.364 143.94L199.42 150.357C199.42 150.357 180.312 159.361 159.059 158.556L161.702 146.728Z" fill="#EB7200"/>
<path d="M164.284 218.372C170.403 217.923 181.494 146.657 181.494 146.657C195.153 146.856 211.669 140.479 211.669 140.479C211.669 140.479 200.375 103.434 196.482 95.7951C192.589 88.1559 164.644 74.9485 161.346 73.9932L106.873 61.5166C106.873 61.5166 60.3746 73.077 45.711 84.9405C31.0474 96.8039 19.5894 146.846 19.5894 146.846C46.5195 157.715 74.4398 156.114 74.4398 156.114L64.9478 213.374C61.8741 227.277 52.0544 271.415 69.3679 292.847C69.3679 292.847 83.2978 224.325 164.284 218.372Z" fill="#EAEEFF"/>
<path d="M128.485 79.85L112.194 89.7992L91.536 65.7586L107.044 56.4618C107.496 56.1924 107.996 56.0155 108.517 55.9414C109.038 55.8673 109.568 55.8975 110.077 56.0301C110.586 56.1628 111.063 56.3953 111.482 56.7142C111.9 57.0331 112.251 57.432 112.514 57.8877L128.485 79.85Z" fill="#DBDAFF"/>
<path d="M153.26 82.1315L164.726 88.9044L164.174 75.1374L161.346 73.9932C161.346 73.9932 156.309 77.3725 153.26 82.1315Z" fill="#DBDAFF"/>
<path d="M74.4398 156.107C76.6481 148.867 78.8563 131.378 78.8563 131.378" stroke="#969BD4" stroke-width="5" stroke-linejoin="round"/>
<path d="M112.194 89.7992L128.179 80.4561C128.179 80.4561 143.516 98.7182 143.943 101.912C144.37 105.106 145.175 137.677 145.175 137.677H153.261" stroke="#969BD4" stroke-width="5" stroke-linejoin="round"/>
<path d="M164.423 88.8903L153.563 82.7375C153.563 82.7375 143.715 98.3297 143.947 101.912" stroke="#969BD4" stroke-width="5" stroke-linejoin="round"/>
<path d="M76.1744 148.913C76.1744 148.913 41.754 149.936 21.5234 139.149" stroke="#969BD4" stroke-width="5" stroke-linejoin="round"/>
<path d="M179.154 205.329C179.154 206.965 162.364 206.37 159.999 206.37C157.634 206.37 142.821 206.933 139.341 206.37C120.425 207.927 36.0517 214.066 26.2391 200.417C14.8808 184.61 25.0282 148.856 25.0282 148.856C50.5122 157.715 74.4398 156.103 74.4398 156.103L72.3491 169.681C92.5761 172.177 129.076 185.01 141.485 189.505C144.146 188.653 154.276 185.584 159.404 186.753C165.338 188.09 172.465 193.437 173.206 194.923C173.947 196.41 179.154 203.696 179.154 205.329Z" fill="#C7C7DB"/>
<path d="M159.989 206.37C162.354 206.37 179.144 206.965 179.144 205.332C179.144 203.7 173.947 196.421 173.206 194.934C172.465 193.448 165.342 188.1 159.404 186.764C159.404 186.764 166.731 196.948 159.989 206.37" fill="#EB7200"/>
<path d="M25.0139 148.867C25.0139 148.867 51.0963 158.05 74.4398 156.107L72.3491 169.681C72.3491 169.681 41.1983 164.691 23.9098 153.398L25.0139 148.867Z" fill="#9494BC"/>
<path d="M250.67 447.018H192.995C192.938 446.137 192.917 445.296 192.934 444.487H250.745C250.808 445.331 250.783 446.179 250.67 447.018Z" fill="#3F4D79"/>
<path d="M198.872 421.174C199.078 427.469 192.999 431.458 192.999 444.469H250.67C250.67 444.469 251.507 433.554 239.985 431.037C228.463 428.52 217.963 425.159 216.915 421.174H198.872Z" fill="#F6BE5F"/>
<path d="M217.311 432.934L222.575 425.134" stroke="#3F4D79" stroke-width="5" stroke-miterlimit="10" stroke-linecap="round"/>
<path d="M221.417 433.882L226.368 426.717" stroke="#3F4D79" stroke-width="5" stroke-miterlimit="10" stroke-linecap="round"/>
<path d="M226.789 434.199L230.792 427.665" stroke="#3F4D79" stroke-width="5" stroke-miterlimit="10" stroke-linecap="round"/>
<path d="M136.848 223.416C136.848 223.416 224.872 217.905 246.264 243.094C267.656 268.282 226.133 358.113 221.937 412.686C221.937 412.686 200.873 414.786 192.322 412.686C183.77 410.586 176.326 317.286 197.875 291.677C197.875 291.677 115.955 310.538 84.0101 286.751C52.0651 262.963 123.559 223.865 136.848 223.416Z" fill="#282A3E"/>
<path d="M216.908 421.174C211.06 423.152 204.724 423.152 198.875 421.174L197.169 413.388C197.169 413.388 208.374 413.955 218.611 412.975L216.908 421.174Z" fill="#C7C7DB"/>
<path d="M381 359.61L335.25 394.755C334.602 393.964 334.016 393.19 333.494 392.435L379.062 357.429C379.789 358.08 380.439 358.812 381 359.61V359.61Z" fill="#3F4D79"/>
<path d="M323.842 370.479C327.838 375.349 325.437 382.218 333.355 392.541L379.105 357.397C379.105 357.397 373.129 348.228 362.447 353.258C351.765 358.288 341.404 362.017 338.145 359.489L323.842 370.479Z" fill="#F6BE5F"/>
<path d="M345.743 368.016L345.176 358.93" stroke="#3F4D79" stroke-width="5" stroke-miterlimit="10" stroke-linecap="round"/>
<path d="M349.219 365.802L348.653 357.664" stroke="#3F4D79" stroke-width="5" stroke-miterlimit="10" stroke-linecap="round"/>
<path d="M352.695 363.589L352.129 356.399" stroke="#3F4D79" stroke-width="5" stroke-miterlimit="10" stroke-linecap="round"/>
<path d="M69.3679 289.282C70.6858 296.39 145.589 313.615 225.293 263.259C225.293 263.259 230.532 324.002 311.066 368.063C311.066 368.063 328.589 361.732 336.464 347.818C336.464 347.818 283.929 286.33 263.702 229.865C255.211 206.156 148.342 218.568 132.717 223.416C117.091 228.264 63.4947 257.602 69.3679 289.282Z" fill="#34364C"/>
<path d="M338.145 359.489C338.145 359.489 334.694 370.126 323.842 370.479L316.768 365.46C323.164 362.188 328.853 357.685 333.508 352.21L338.145 359.489Z" fill="#C7C7DB"/>
<path d="M138.194 41.9213C138.194 41.9213 134.864 50.6834 113.262 59.032C113.262 59.032 128.464 79.8572 143.925 99.424C143.925 99.424 150.123 81.4471 161.324 74.0003L138.194 41.9213Z" fill="#C7C7DB"/>
<path d="M161.346 73.9931C158.044 76.2496 155.262 79.2975 152.961 82.5485C145.838 77.2014 137.828 67.8155 135.456 61.0068C134.284 57.6381 137.386 48.5302 139.185 43.2687L161.346 73.9931Z" fill="#9494BC"/>
<path d="M137.76 43.6323C137.76 46.4841 135.285 55.264 138.28 58.786C143.758 65.2275 159.451 75.5403 167.169 75.1089C172.668 74.8131 180.458 50.9365 181.619 47.3682C182.78 43.7999 187.795 29.491 184.233 25.6661C180.671 21.8411 150.899 13.4711 144.983 25.7979C138.426 39.4616 137.76 43.6323 137.76 43.6323Z" fill="#C7C7DB"/>
<path d="M196.482 17.3673C193.558 36.5135 181.099 39.016 156.555 24.6358C145.311 18.0518 153.261 29.8439 146.938 40.0818L144.873 40.8518C144.94 39.8216 145.086 35.5653 142.971 35.5546C139.854 35.5546 138.896 40.2743 138.597 43.1867L137.4 43.6323C137.4 43.6323 137.272 22.2902 140.296 15.5065C147.775 -1.28693 169.395 7.78532 174.698 10.6407C191.431 19.6416 196.482 17.3673 196.482 17.3673Z" fill="#3C4564"/>
<path d="M156.003 23.1707C173.455 36.9591 187.168 40.2279 193.978 32.1217" stroke="#3C4564" stroke-width="4" stroke-miterlimit="10"/>
<path d="M141.446 29.4426L141.412 29.4328C137.235 28.2434 132.885 30.6686 131.696 34.8497L130.727 38.2579C129.539 42.439 131.962 46.7926 136.14 47.9821L136.174 47.9918C140.352 49.1813 144.702 46.7561 145.89 42.575L146.859 39.1668C148.047 34.9857 145.624 30.632 141.446 29.4426Z" fill="white" stroke="#F6BE5F" stroke-width="5" stroke-miterlimit="10" stroke-linecap="round"/>
<path d="M147.149 38.1426L145.589 43.6323C145.095 45.3644 143.935 46.8296 142.363 47.706C140.791 48.5823 138.935 48.798 137.204 48.3057L135.096 47.7032C135.003 47.6783 134.914 47.6498 134.822 47.6177C136.524 48.0303 138.319 47.7665 139.831 46.8817C141.343 45.9969 142.453 44.56 142.928 42.873L144.488 37.3833C144.971 35.6992 144.782 33.8935 143.963 32.3454C143.143 30.7973 141.756 29.6273 140.093 29.0811L140.371 29.1523L142.469 29.7441C143.329 29.9848 144.133 30.3937 144.834 30.9469C145.536 31.5002 146.121 32.1871 146.556 32.9678C146.991 33.7486 147.268 34.6078 147.369 35.4959C147.471 36.3841 147.396 37.2836 147.149 38.1426V38.1426Z" fill="white" stroke="#F6BE5F" stroke-width="5" stroke-miterlimit="10" stroke-linecap="round"/>
<path d="M140.371 29.1417L146.782 6.61256C147.064 5.6182 147.54 4.68927 148.181 3.8788C148.822 3.06834 149.616 2.39222 150.519 1.88906C151.421 1.3859 152.413 1.06556 153.439 0.946328C154.465 0.827097 155.505 0.911311 156.498 1.19416L179.293 7.68198C182.114 8.48405 183.396 10.712 182.591 13.5388" stroke="#F6BE5F" stroke-width="5" stroke-miterlimit="10" stroke-linecap="round"/>
<path d="M246.869 207.268H146.931C142.369 207.268 139.477 202.701 141.678 198.973L175.514 141.698C178.456 136.708 184.062 133.62 190.174 133.62H290.116C294.678 133.62 297.57 138.187 295.369 141.916L261.533 199.19C258.58 204.174 252.967 207.268 246.869 207.268Z" fill="#EAEEFF"/>
<path d="M245.89 209.107H150.055C145.585 209.107 142.753 204.634 144.912 200.98L178.061 144.867C180.946 139.984 186.449 136.954 192.425 136.954H288.26C292.73 136.954 295.562 141.427 293.403 145.081L260.254 201.19C257.369 206.074 251.867 209.107 245.89 209.107Z" fill="#F7E2BF"/>
<path d="M246.869 207.268H146.931C142.369 207.268 139.477 202.701 141.678 198.973L175.514 141.698C178.456 136.708 184.062 133.62 190.174 133.62H290.116C294.678 133.62 297.57 138.187 295.369 141.916L261.533 199.19C258.58 204.174 252.967 207.268 246.869 207.268Z" stroke="#F6BE5F" stroke-width="5" stroke-miterlimit="10"/>
<path d="M248.216 207.343H65.7243C63.8005 207.343 62.2409 208.904 62.2409 210.829V211.599C62.2409 213.525 63.8005 215.085 65.7243 215.085H248.216C250.14 215.085 251.699 213.525 251.699 211.599V210.829C251.699 208.904 250.14 207.343 248.216 207.343Z" fill="#D1D1FF" stroke="#F6BE5F" stroke-width="6" stroke-miterlimit="10"/>
</g>
<defs>
<clipPath id="clip0">
<rect width="381" height="447" fill="white"/>
</clipPath>
</defs>
</svg>
